<svg width="17" height="22" viewBox="0 0 17 22" fill="none" xmlns="http://www.w3.org/2000/svg">
<g clip-path="url(#clip0_169_4262)">
<path opacity="0.4" fill-rule="evenodd" clip-rule="evenodd" d="M0.87931 11C1.36494 11 1.75862 11.3404 1.75862 11.7604C1.75862 14.3583 4.58957 16.424 8.5 16.424C12.4104 16.424 15.2414 14.3583 15.2414 11.7604C15.2414 11.3404 15.6351 11 16.1207 11C16.6063 11 17 11.3404 17 11.7604V15.5115C17 19.1911 13.0749 22 8.5 22C3.9251 22 0 19.1911 0 15.5115V11.7604C0 11.3404 0.393681 11 0.87931 11ZM1.75997 15.6102C1.83095 18.2156 4.70482 20.4793 8.5 20.4793C12.2952 20.4793 15.169 18.2156 15.24 15.6102C13.654 17.0848 11.1671 17.9447 8.5 17.9447C5.83286 17.9447 3.34604 17.0848 1.75997 15.6102Z" fill="white"/>
<path fill-rule="evenodd" clip-rule="evenodd" d="M8.5 1.56C6.59465 1.56 4.90274 2.15124 3.68513 3.09403C2.47865 4.02704 1.75862 5.2882 1.75862 6.656C1.75862 7.4563 2.00553 8.1895 2.43858 8.8181L2.43963 8.8196C3.50179 10.3694 5.76017 11.44 8.5 11.44C11.2398 11.44 13.4982 10.3694 14.5604 8.8196L14.5614 8.8181C14.9945 8.1895 15.2414 7.4563 15.2414 6.656C15.2414 5.2898 14.5233 4.02842 13.315 3.08377C12.0963 2.15045 10.404 1.56 8.5 1.56ZM2.52907 1.91846C4.07833 0.71903 6.18487 0 8.5 0C10.8151 0 12.9202 0.71897 14.4681 1.9059L14.4742 1.91052C16.0077 3.10802 17 4.77851 17 6.656C17 7.7482 16.6609 8.7619 16.0626 9.6308C14.6156 11.7413 11.7156 13 8.5 13C5.28441 13 2.38453 11.7414 0.937529 9.6309C0.339125 8.762 0 7.7483 0 6.656C0 4.77914 0.992335 3.10703 2.52907 1.91846Z" fill="white"/>
<path fill-rule="evenodd" clip-rule="evenodd" d="M8.5 1.54286C4.65697 1.54286 1.75862 3.89769 1.75862 6.5829V11.7257C1.75862 14.3614 4.58957 16.4571 8.5 16.4571C12.4104 16.4571 15.2414 14.3614 15.2414 11.7257V6.5829C15.2414 5.2317 14.5233 3.98416 13.315 3.04989C12.0963 2.12682 10.404 1.54286 8.5 1.54286ZM0 6.5829C0 2.84974 3.9251 0 8.5 0C10.8151 0 12.9202 0.71107 14.4681 1.88496L14.4742 1.88952C16.0077 3.07386 17 4.726 17 6.5829V11.7257C17 15.5083 13.0075 18 8.5 18C3.9925 18 0 15.5083 0 11.7257V6.5829Z" fill="white"/>
</g>
<defs>
<clipPath id="clip0_169_4262">
<rect width="17" height="22" fill="white"/>
</clipPath>
</defs>
</svg>
