<svg width="81" height="81" viewBox="0 0 81 81" fill="none" xmlns="http://www.w3.org/2000/svg">
<path d="M40.1113 75.1348C59.4413 75.1348 75.1113 59.4647 75.1113 40.1348C75.1113 20.8048 59.4413 5.13477 40.1113 5.13477C20.7813 5.13477 5.1113 20.8048 5.1113 40.1348C5.1113 59.4647 20.7813 75.1348 40.1113 75.1348Z" fill="#0F287F"/>
<path fill-rule="evenodd" clip-rule="evenodd" d="M27.6113 20.1348L15.1113 27.6348L27.6113 35.1348L15.1113 42.6348L27.6113 50.1348L40.1113 42.6348L52.6113 50.1348L65.1113 42.6348L52.6113 35.1348L65.1113 27.6348L52.6113 20.1348L40.1113 27.6348L27.6113 20.1348ZM40.1113 27.6348L52.6113 35.1348L40.1113 42.6348L27.6113 35.1348L40.1113 27.6348Z" fill="#DAF8FE"/>
<path d="M27.6113 55.1348L40.1113 47.6348L52.6113 55.1348L40.1113 62.6348L27.6113 55.1348Z" fill="#DAF8FE"/>
</svg>
