<svg width="81" height="81" viewBox="0 0 81 81" fill="none" xmlns="http://www.w3.org/2000/svg">
<path fill-rule="evenodd" clip-rule="evenodd" d="M40.7778 40.1348C40.7778 33.9216 45.8146 28.8848 52.0278 28.8848C58.241 28.8848 63.2778 33.9216 63.2778 40.1348C63.2778 46.348 58.241 51.3848 52.0278 51.3848C45.8146 51.3848 40.7778 46.348 40.7778 40.1348Z" fill="#1ABCFE"/>
<path fill-rule="evenodd" clip-rule="evenodd" d="M18.2778 62.6348C18.2778 56.4216 23.3146 51.3848 29.5278 51.3848H40.7778V62.6348C40.7778 68.848 35.741 73.8848 29.5278 73.8848C23.3146 73.8848 18.2778 68.848 18.2778 62.6348Z" fill="#0ACF83"/>
<path fill-rule="evenodd" clip-rule="evenodd" d="M40.7778 6.38477V28.8848H52.0278C58.241 28.8848 63.2778 23.848 63.2778 17.6348C63.2778 11.4216 58.241 6.38477 52.0278 6.38477H40.7778Z" fill="#FF7262"/>
<path fill-rule="evenodd" clip-rule="evenodd" d="M18.2778 17.6348C18.2778 23.848 23.3146 28.8848 29.5278 28.8848H40.7778V6.38477H29.5278C23.3146 6.38477 18.2778 11.4216 18.2778 17.6348Z" fill="#F24E1E"/>
<path fill-rule="evenodd" clip-rule="evenodd" d="M18.2778 40.1348C18.2778 46.348 23.3146 51.3848 29.5278 51.3848H40.7778V28.8848H29.5278C23.3146 28.8848 18.2778 33.9216 18.2778 40.1348Z" fill="#A259FF"/>
</svg>
