<svg width="81" height="81" viewBox="0 0 81 81" fill="none" xmlns="http://www.w3.org/2000/svg">
<g filter="url(#filter0_d_25_1295)">
<path d="M5.55566 30.0237C5.55566 21.3117 5.55566 16.9558 7.25112 13.6282C8.74248 10.7013 11.1222 8.32158 14.0491 6.83022C17.3767 5.13477 21.7326 5.13477 30.4446 5.13477H50.6668C59.3787 5.13477 63.7347 5.13477 67.0622 6.83022C69.9892 8.32158 72.3688 10.7013 73.8602 13.6282C75.5557 16.9558 75.5557 21.3117 75.5557 30.0237V50.2459C75.5557 58.9578 75.5557 63.3138 73.8602 66.6413C72.3688 69.5683 69.9892 71.9479 67.0622 73.4393C63.7347 75.1348 59.3787 75.1348 50.6668 75.1348H30.4446C21.7326 75.1348 17.3767 75.1348 14.0491 73.4393C11.1222 71.9479 8.74248 69.5683 7.25112 66.6413C5.55566 63.3138 5.55566 58.9578 5.55566 50.2459V30.0237Z" fill="white"/>
<path d="M40.5609 31.262L31.9087 15.9927C32.196 15.7002 32.5265 15.5083 32.857 15.3794C30.3055 16.2191 29.1348 19.0843 29.1348 19.0843L13.3285 46.9716C13.1061 47.8459 13.0443 48.6353 13.0721 49.3304H30.3241L40.5609 31.262Z" fill="#34A853"/>
<path d="M40.5605 31.262L50.7974 49.3304H68.0493C68.0771 48.6353 68.0153 47.8459 67.7929 46.9716L51.9867 19.0843C51.9867 19.0843 50.8128 16.2191 48.2644 15.3794C48.5919 15.5083 48.9255 15.7002 49.2128 15.9927L40.5605 31.262Z" fill="#FBBC05"/>
<path d="M40.5604 31.2628L49.2126 15.9935C48.9254 15.7011 48.5918 15.5092 48.2643 15.3803C47.8875 15.2576 47.4828 15.1758 47.0442 15.1538H46.587H34.5338H34.0767C33.6411 15.1727 33.2334 15.2545 32.8565 15.3803C32.5291 15.5092 32.1955 15.7011 31.9082 15.9935L40.5604 31.2628Z" fill="#188038"/>
<path d="M30.3267 49.3306L21.7733 64.4269C21.7733 64.4269 21.4891 64.2885 21.103 64.0023C22.317 64.9364 23.497 65.1345 23.497 65.1345H57.0896C58.943 65.1345 59.3291 64.4269 59.3291 64.4269C59.3353 64.4237 59.3383 64.4206 59.3445 64.4175L50.7973 49.3306H30.3267Z" fill="#4285F4"/>
<path d="M30.3276 49.3306H13.0757C13.1622 51.3811 14.0518 52.5794 14.0518 52.5794L14.7005 53.7054C14.7468 53.7714 14.7746 53.8091 14.7746 53.8091L16.1863 56.2875L19.3556 61.8039C19.4482 62.0272 19.5564 62.2316 19.6706 62.4266C19.7139 62.4927 19.754 62.565 19.8004 62.6279C19.8127 62.6468 19.8251 62.6656 19.8374 62.6845C20.2297 63.2381 20.6684 63.6658 21.107 64.0023C21.4931 64.2916 21.7773 64.4269 21.7773 64.4269L30.3276 49.3306Z" fill="#1967D2"/>
<path d="M50.7974 49.3306H68.0493C67.9628 51.3811 67.0732 52.5794 67.0732 52.5794L66.4245 53.7054C66.3781 53.7714 66.3503 53.8091 66.3503 53.8091L64.9387 56.2875L61.7694 61.8039C61.6767 62.0272 61.5686 62.2316 61.4543 62.4266C61.4111 62.4927 61.3709 62.565 61.3246 62.6279C61.3122 62.6468 61.2999 62.6656 61.2875 62.6845C60.8952 63.2381 60.4566 63.6658 60.0179 64.0023C59.6318 64.2916 59.3476 64.4269 59.3476 64.4269L50.7974 49.3306Z" fill="#EA4335"/>
</g>
<defs>
<filter id="filter0_d_25_1295" x="3.55566" y="4.13477" width="74" height="74" filterUnits="userSpaceOnUse" color-interpolation-filters="sRGB">
<feFlood flood-opacity="0" result="BackgroundImageFix"/>
<feColorMatrix in="SourceAlpha" type="matrix" values="0 0 0 0 0 0 0 0 0 0 0 0 0 0 0 0 0 0 127 0" result="hardAlpha"/>
<feOffset dy="1"/>
<feGaussianBlur stdDeviation="1"/>
<feColorMatrix type="matrix" values="0 0 0 0 0.0627451 0 0 0 0 0.0941176 0 0 0 0 0.156863 0 0 0 0.05 0"/>
<feBlend mode="normal" in2="BackgroundImageFix" result="effect1_dropShadow_25_1295"/>
<feBlend mode="normal" in="SourceGraphic" in2="effect1_dropShadow_25_1295" result="shape"/>
</filter>
</defs>
</svg>
