<svg width="81" height="81" viewBox="0 0 81 81" fill="none" xmlns="http://www.w3.org/2000/svg">
<path d="M40.3335 75.1348C59.6635 75.1348 75.3335 59.4647 75.3335 40.1348C75.3335 20.8048 59.6635 5.13477 40.3335 5.13477C21.0035 5.13477 5.3335 20.8048 5.3335 40.1348C5.3335 59.4647 21.0035 75.1348 40.3335 75.1348Z" fill="#3290E8"/>
<path fill-rule="evenodd" clip-rule="evenodd" d="M55.3335 20.1348H25.3335C22.6078 20.1305 20.3383 22.4141 20.3335 25.1348V55.1348C20.3335 57.8959 22.5727 60.1348 25.3335 60.1348H55.3335C58.0592 60.139 60.3287 57.8555 60.3335 55.1348V25.1348C60.3335 22.3737 58.0954 20.1348 55.3335 20.1348ZM45.6657 27.4681C45.6657 26.7325 46.2637 26.1348 47.0002 26.1348C47.7366 26.1348 48.3335 26.7325 48.3335 27.4681V45.2825C48.3335 46.0181 47.7355 46.6159 47.0002 46.6159C46.2943 46.6165 45.6686 45.9908 45.6668 45.2825L45.6657 27.4681ZM38.9991 26.7937C38.9991 26.057 39.5971 25.4603 40.3335 25.4603C41.0699 25.4603 41.6679 26.057 41.6679 26.7937V46.127C41.6679 46.8637 41.0699 47.4603 40.3335 47.4603C39.6276 47.4609 39.0019 46.8352 39.0002 46.127L38.9991 26.7937ZM32.3335 27.4681C32.3335 26.7325 32.9315 26.1348 33.6668 26.1348C34.4033 26.1348 35.0002 26.7325 35.0002 27.4681V45.2825C35.0002 46.0181 34.4033 46.6159 33.6668 46.6159C32.9609 46.6165 32.3353 45.9908 32.3335 45.2825V27.4681ZM25.6668 30.1348C25.6668 29.3981 26.2637 28.8014 27.0002 28.8014C27.7366 28.8014 28.3335 29.3981 28.3335 30.1348V42.127C28.3335 42.8637 27.7355 43.4603 27.0002 43.4603C26.2733 43.4615 25.668 42.8526 25.6668 42.127V30.1348ZM54.535 50.4725C54.3302 50.6503 49.39 54.7937 40.3335 54.7937C31.277 54.7937 26.3401 50.6492 26.1319 50.4714C25.5811 49.9994 25.5159 49.143 25.988 48.5925C26.4482 48.0568 27.3265 47.9881 27.864 48.4459C27.9415 48.5114 32.3523 52.127 40.3324 52.127C48.4121 52.127 52.7554 48.4848 52.7975 48.4492C53.3342 47.988 54.2157 48.0553 54.6768 48.5925C55.1521 49.142 55.0877 50.0007 54.535 50.4725ZM55.0002 42.1281C55.0002 42.8637 54.4022 43.4614 53.6668 43.4614C52.9399 43.4626 52.3347 42.8537 52.3335 42.1281V30.1348C52.3335 29.3981 52.9304 28.8014 53.6657 28.8014C54.4022 28.8014 55.0002 29.3981 55.0002 30.1348V42.1281Z" fill="white"/>
</svg>
