<svg width="81" height="81" viewBox="0 0 81 81" fill="none" xmlns="http://www.w3.org/2000/svg">
<path d="M40.6665 5.13477C21.3618 5.13477 5.6665 20.8301 5.6665 40.1348C5.6665 59.4395 21.3618 75.1348 40.6665 75.1348C59.9712 75.1348 75.6665 59.4395 75.6665 40.1348C75.6665 20.8301 59.9712 5.13477 40.6665 5.13477Z" fill="#FDDD4C"/>
<path d="M25.3386 49.2604C24.5733 48.1017 26.4982 46.3481 25.7153 44.8758C25.2639 44.0266 24.5262 43.4975 23.6403 43.3864C22.79 43.2797 21.9141 43.591 21.3558 44.1993C20.4744 45.1585 20.3373 46.4642 20.5078 46.9262C20.5702 47.0956 20.6683 47.1418 20.7385 47.1517C21.2186 47.2149 21.4887 45.9827 21.6545 45.7261C22.1128 45.0187 23.1534 44.8047 23.8721 45.2696C25.2348 46.151 24.0532 47.5754 24.1551 48.7786C24.2543 49.9501 24.9842 50.4209 25.6395 50.4704C26.2769 50.4946 26.7227 50.1404 26.8352 49.8819C27.1051 49.2648 25.9683 50.2137 25.3386 49.2604Z" fill="black"/>
<path d="M53.8108 38.6246C53.4533 38.5751 53.0626 38.5763 52.6563 38.6246C52.3476 38.2352 52.0712 37.6048 51.9152 36.869C51.6377 35.56 51.6667 34.6118 52.4412 34.4886C53.2157 34.3654 53.5901 35.1574 53.8676 36.4664C54.0537 37.3464 54.018 38.1549 53.8108 38.6246Z" fill="black"/>
<path d="M45.328 39.4031C45.3587 39.6995 45.3695 39.9994 45.3608 40.2756C46.1102 40.3196 46.641 40.6755 46.7823 40.9013C46.8548 41.0179 46.8258 41.0938 46.8024 41.129C46.7249 41.2497 46.5586 41.2311 46.2103 41.192C45.9061 41.1578 45.5785 41.1278 45.2381 41.1435C45.0528 41.7116 44.5035 41.7648 44.1176 41.3446C43.848 41.4268 43.3184 41.765 43.1606 41.3974C43.1592 41.2151 43.3499 40.95 43.6953 40.7159C43.4595 40.2663 43.3015 39.7848 43.2082 39.2864C42.7186 39.3746 42.2782 39.5117 41.933 39.6192C41.7709 39.6697 41.1296 39.9593 41.0545 39.6329C41.0043 39.4074 41.3554 39.0356 41.7265 38.7672C42.1411 38.4728 42.6011 38.2636 43.078 38.1428C43.0677 37.4328 43.2489 36.9375 43.7647 36.8555C44.4043 36.7537 44.8007 37.2461 45.075 38.158C45.848 38.3727 46.6199 38.9053 46.9606 39.4558C47.0933 39.6692 47.1189 39.8342 47.0331 39.9211C46.8188 40.1431 45.632 39.4995 45.328 39.4031Z" fill="black"/>
<path d="M50.4108 42.5942C50.9011 42.8318 51.4405 42.7383 51.6165 42.3852C51.7926 42.0321 51.5374 41.5536 51.0471 41.316C50.5568 41.0784 50.0174 41.1719 49.8413 41.525C49.6653 41.8781 49.9205 42.3566 50.4108 42.5942Z" fill="black"/>
<path d="M52.8244 40.8408C52.8333 40.3007 53.1643 39.8695 53.5621 39.8761C53.96 39.8838 54.2753 40.326 54.2664 40.865C54.2575 41.404 53.9265 41.8352 53.5287 41.8286C53.1309 41.822 52.8155 41.3798 52.8244 40.8408Z" fill="black"/>
<path fill-rule="evenodd" clip-rule="evenodd" d="M63.6127 47.4551C63.6095 47.4439 63.6205 47.4827 63.6127 47.4551C64.4117 47.4551 65.6665 48.3615 65.6665 50.5516C65.6665 52.7307 64.7505 55.1991 64.5343 55.7469C61.2347 63.5525 53.3594 67.8975 43.9786 67.6225C35.233 67.3662 27.7745 62.8111 24.5106 55.385C22.537 55.3872 20.5022 54.5303 18.9554 53.1773C17.3251 51.7517 16.3199 49.907 16.1238 47.9831C15.9711 46.4849 16.1572 45.0912 16.6331 43.8758L14.7999 42.3424C6.41094 35.3508 32.6488 6.56386 41.04 13.7887C41.0824 13.825 43.895 16.5485 43.9017 16.5551C47.9478 14.8594 58.7887 11.6308 58.8009 19.1467C58.8053 21.6426 57.1939 24.5532 54.6119 27.1943C57.5959 29.9259 56.809 33.806 57.2842 37.366L58.3206 37.6498C60.2964 38.1965 61.7016 38.9258 62.3891 39.6386C63.0767 40.3503 63.4177 41.04 63.5414 41.8485C63.6573 42.5008 63.6417 43.6524 62.7703 44.9405C63.084 45.7715 63.3705 46.5999 63.6127 47.4551ZM24.3623 53.3599C24.6554 53.3665 24.9463 53.3478 25.2316 53.2994C28.2972 52.7835 29.0995 49.4967 28.5947 46.2693C28.0242 42.6251 25.5269 41.3403 23.8319 41.249C23.3605 41.2248 22.9226 41.2666 22.5615 41.3381C19.536 41.9398 17.8277 44.4807 18.1642 47.7807C18.4684 50.7672 21.5285 53.2851 24.3623 53.3599ZM17.5101 42.2335C18.5253 40.7782 20.1846 39.7255 22.0679 39.3636C24.4649 33.0122 28.4677 27.1602 33.7654 23.1331C37.6969 19.8958 41.9371 17.5737 41.9371 17.5737C41.9371 17.5737 39.6537 14.9602 38.9639 14.7677C34.7215 13.6369 25.5592 19.8738 19.7087 28.115C17.3418 31.4491 13.953 37.3539 15.5733 40.391C15.7728 40.7672 16.9039 41.7341 17.5101 42.2335ZM51.9051 51.9013C51.9118 51.9695 51.8695 52.0399 51.8082 52.0652C51.8082 52.0652 48.3993 53.6305 42.9846 51.9772C43.1793 53.6003 45.1476 54.2154 46.5227 54.4379C53.2324 55.5775 59.5051 51.7902 60.9171 50.8365C61.1595 50.6728 60.9141 51.0937 60.8703 51.1555C59.1419 53.3566 54.4949 55.9053 48.4495 55.9042C45.8129 55.9031 43.1774 54.9868 42.2101 53.5777C40.7091 51.392 42.1354 48.2009 44.6372 48.5331C48.866 49.0045 53.2013 48.6503 57.1159 46.8567C60.5293 45.2925 61.8186 43.5721 61.6247 42.1785C61.324 40.0185 58.1217 39.6808 56.503 39.1557C55.7988 38.9258 55.4511 38.7421 55.3719 37.4342C55.3374 36.8633 55.2371 34.8712 55.2003 34.0473C55.1357 32.6052 54.9596 30.6329 53.7204 29.8189C53.3973 29.6066 53.0385 29.5043 52.6607 29.4845C52.3595 29.4701 52.1809 29.5115 52.0848 29.5338C52.0633 29.5387 52.0459 29.5428 52.0322 29.545C51.3631 29.6573 50.953 29.9958 50.4695 30.395C50.4416 30.418 50.4135 30.4412 50.3851 30.4646C48.8395 31.7362 47.5346 31.9441 46.0826 31.8825C45.6304 31.8636 45.1643 31.8184 44.6726 31.7708C44.2204 31.7269 43.7465 31.681 43.242 31.6515L42.6258 31.6163C40.1942 31.4931 37.5866 33.5655 37.1531 36.5091C36.6688 39.7947 38.5053 41.8072 39.6996 43.116C39.9947 43.4394 40.2507 43.7199 40.4227 43.966C40.533 44.1145 40.6611 44.3234 40.6611 44.5225C40.6611 44.7601 40.5051 44.9482 40.3525 45.1088C37.8719 47.6267 37.0784 51.6274 38.0134 54.9615C38.1304 55.3773 38.2786 55.7755 38.4536 56.1561C40.6466 61.215 47.451 63.5712 54.0971 61.4284C58.7551 59.9265 62.8705 56.2973 63.7086 51.2908C63.908 49.9862 63.6149 49.4824 63.216 49.2393C62.7937 48.983 62.2877 49.0721 62.2877 49.0721C62.2877 49.0721 62.0571 47.5134 61.404 46.0966C59.4661 47.6058 56.9722 48.6662 55.0733 49.2041C52.0309 50.0657 48.7446 50.4011 45.6007 49.9948C44.3256 49.8301 43.4688 49.7194 43.1016 50.897C47.295 52.4128 51.7335 51.7638 51.7335 51.7638C51.8193 51.755 51.8962 51.8166 51.9051 51.9013ZM39.8064 22.4863C37.513 23.6446 34.9522 25.7071 32.8728 28.0798C32.7992 28.1645 32.9085 28.2811 32.9987 28.2162C34.7951 26.9259 37.2578 25.7269 40.4839 24.9503C44.0979 24.0802 47.5769 24.4454 49.702 24.9261C49.809 24.9503 49.8759 24.7688 49.7811 24.716C48.377 23.9383 46.2218 23.4103 44.6929 23.3993C44.6183 23.3982 44.5759 23.3124 44.6205 23.253C44.8846 22.9021 45.2468 22.5556 45.5777 22.3048C45.6513 22.2476 45.6067 22.1299 45.5131 22.1354C43.6112 22.2507 39.2671 24.2315 39.2827 24.1594C39.3941 23.6314 39.7451 22.934 39.9268 22.6084C39.9702 22.5314 39.8855 22.4467 39.8064 22.4863Z" fill="black"/>
</svg>
