<svg width="79" height="81" viewBox="0 0 79 81" fill="none" xmlns="http://www.w3.org/2000/svg">
<path fill-rule="evenodd" clip-rule="evenodd" d="M14.1114 73.1792L5.62045 62.4676C3.57753 59.8904 2.46875 56.7213 2.46875 53.4594V14.6722C2.46875 9.78637 6.32885 5.73219 11.3087 5.38789L50.6887 2.66522C53.5497 2.46742 56.3932 3.23749 58.7433 4.84652L72.5794 14.3195C75.056 16.0152 76.5312 18.7872 76.5312 21.7454V65.8427C76.5312 70.6241 72.7357 74.583 67.8601 74.8869L24.1526 77.6114C20.2618 77.854 16.5011 76.194 14.1114 73.1792Z" fill="white"/>
<path d="M27.769 34.0813V33.5735C27.769 32.2863 28.787 31.2187 30.0991 31.13L39.6565 30.4838L52.8736 50.1933V32.8949L49.4716 32.4356V32.1944C49.4716 30.8921 50.5129 29.8175 51.8417 29.7485L60.5379 29.2974V30.5647C60.5379 31.1596 60.101 31.6685 59.5023 31.771L57.4096 32.1295V60.1438L54.7832 61.0584C52.5891 61.8225 50.1464 61.0046 48.8903 59.0852L36.059 39.4775V58.1919L40.0085 58.9574L39.9534 59.3283C39.781 60.4904 38.7904 61.3692 37.5919 61.4232L27.769 61.8659C27.6391 60.6164 28.5639 59.4984 29.8398 59.3627L31.1319 59.2253V34.2726L27.769 34.0813Z" fill="black"/>
<path fill-rule="evenodd" clip-rule="evenodd" d="M51.0414 7.55148L11.6613 10.2741C9.30247 10.4372 7.474 12.3576 7.474 14.672V53.4592C7.474 55.6338 8.21319 57.7465 9.57513 59.4647L18.066 70.1763C19.4388 71.9081 21.5993 72.8618 23.8344 72.7224L67.5418 69.9979C69.782 69.8583 71.5259 68.0393 71.5259 65.8425V21.7452C71.5259 20.386 70.8482 19.1124 69.7102 18.3333L55.8741 8.86026C54.4641 7.89484 52.758 7.4328 51.0414 7.55148ZM13.6141 15.277C13.0664 14.8664 13.327 14.0109 14.0151 13.9609L51.3063 11.2523C52.4944 11.166 53.6751 11.4973 54.636 12.1867L62.1181 17.5548C62.4022 17.7586 62.269 18.1986 61.9173 18.218L22.426 20.3929C21.231 20.4588 20.0513 20.1032 19.101 19.3908L13.6141 15.277ZM20.5738 27.2113C20.5738 25.9121 21.6103 24.8389 22.9356 24.7658L64.6891 22.4632C65.9807 22.3919 67.0681 23.3979 67.0681 24.6641V62.8477C67.0681 64.1445 66.0353 65.2166 64.7126 65.2928L23.2234 67.6833C21.7859 67.7662 20.5738 66.6476 20.5738 65.2382V27.2113Z" fill="black"/>
</svg>
