<svg width="81" height="81" viewBox="0 0 81 81" fill="none" xmlns="http://www.w3.org/2000/svg">
<path d="M66.6949 37.6342C70.1464 37.6342 72.9443 34.8362 72.9443 31.3847C72.9443 27.9332 70.1461 25.1353 66.6946 25.1353C63.2428 25.1353 60.4443 27.9335 60.4443 31.3853V37.6342H66.6949ZM49.1943 37.6342C52.6461 37.6342 55.4443 34.836 55.4443 31.3842V13.8853C55.4443 10.4335 52.6461 7.63525 49.1943 7.63525C45.7426 7.63525 42.9443 10.4335 42.9443 13.8853V31.3842C42.9443 34.836 45.7426 37.6342 49.1943 37.6342Z" fill="#2EB67D"/>
<path d="M14.1938 42.6353C10.7423 42.6353 7.94434 45.4333 7.94434 48.8848C7.94434 52.3363 10.7426 55.1343 14.1941 55.1343C17.6459 55.1343 20.4443 52.3361 20.4443 48.8843V42.6353H14.1938ZM31.6943 42.6353C28.2426 42.6353 25.4443 45.4336 25.4443 48.8853V66.3843C25.4443 69.8361 28.2426 72.6343 31.6943 72.6343C35.1461 72.6343 37.9443 69.8361 37.9443 66.3843V48.8853C37.9443 45.4336 35.1461 42.6353 31.6943 42.6353Z" fill="#E01E5A"/>
<path d="M42.9449 66.3853C42.9449 69.8368 45.7429 72.6348 49.1944 72.6348C52.6459 72.6348 55.4438 69.8365 55.4438 66.385C55.4438 62.9333 52.6456 60.1348 49.1938 60.1348H42.9449V66.3853ZM42.9449 48.8848C42.9449 52.3365 45.7431 55.1348 49.1949 55.1348H66.6938C70.1456 55.1348 72.9438 52.3365 72.9438 48.8848C72.9438 45.433 70.1456 42.6348 66.6938 42.6348H49.1949C45.7431 42.6348 42.9449 45.433 42.9449 48.8848Z" fill="#ECB22E"/>
<path d="M37.9438 13.8842C37.9438 10.4327 35.1458 7.63477 31.6943 7.63477C28.2428 7.63477 25.4448 10.433 25.4448 13.8845C25.4448 17.3363 28.2431 20.1348 31.6948 20.1348H37.9438V13.8842ZM37.9438 31.3848C37.9438 27.933 35.1455 25.1348 31.6938 25.1348H14.1948C10.743 25.1348 7.94482 27.933 7.94482 31.3848C7.94482 34.8365 10.743 37.6348 14.1948 37.6348H31.6937C35.1455 37.6348 37.9438 34.8365 37.9438 31.3848Z" fill="#36C5F0"/>
</svg>
