<svg width="81" height="81" viewBox="0 0 81 81" fill="none" xmlns="http://www.w3.org/2000/svg">
<path d="M7.40204 16.055C5.22217 20.3332 5.22217 25.9337 5.22217 37.1348V43.1348C5.22217 54.3358 5.22217 59.9363 7.40204 64.2146C9.31951 67.9778 12.3791 71.0374 16.1424 72.9549C20.4206 75.1348 26.0211 75.1348 37.2222 75.1348H43.2222C54.4232 75.1348 60.0237 75.1348 64.302 72.9549C68.0652 71.0374 71.1248 67.9778 73.0423 64.2146C75.2222 59.9363 75.2222 54.3358 75.2222 43.1348V37.1348C75.2222 25.9337 75.2222 20.3332 73.0423 16.055C71.1248 12.2917 68.0652 9.2321 64.302 7.31464C60.0237 5.13477 54.4232 5.13477 43.2222 5.13477H37.2222C26.0211 5.13477 20.4206 5.13477 16.1424 7.31464C12.3791 9.2321 9.31951 12.2917 7.40204 16.055Z" fill="url(#paint0_linear_25_1278)"/>
<path d="M5.88522 20.8333C5.22217 24.6015 5.22217 29.6015 5.22217 37.1344V43.1344C5.22217 54.3355 5.22217 59.936 7.40204 64.2142C9.31951 67.9775 12.3791 71.0371 16.1424 72.9545C20.4206 75.1344 26.0211 75.1344 37.2222 75.1344H43.2222C54.4232 75.1344 60.0237 75.1344 64.302 72.9545C68.0652 71.0371 71.1248 67.9775 73.0423 64.2142C75.2222 59.936 75.2222 54.3355 75.2222 43.1344V37.1344C75.2222 25.9334 75.2222 20.3328 73.0423 16.0546C71.1915 12.4223 68.2767 9.44551 64.6922 7.51855L5.88522 20.8333Z" fill="url(#paint1_linear_25_1278)"/>
<path d="M74.498 59.7695C74.1766 61.4589 73.7124 62.899 73.0423 64.2142C71.1249 67.9774 68.0653 71.037 64.302 72.9545C60.1518 75.0691 54.7573 75.1324 44.2128 75.1343H40.3687V67.2264L74.498 59.7695Z" fill="url(#paint2_linear_25_1278)"/>
<path d="M43.2221 5.13477H37.2221C35.043 5.13477 33.0758 5.13477 31.2891 5.15082V15.0611L64.6856 7.5154C64.5586 7.44715 64.4306 7.38023 64.3019 7.31464C61.9268 6.10447 59.1442 5.56613 55.2221 5.32666C52.0793 5.13477 48.2048 5.13477 43.2221 5.13477Z" fill="url(#paint3_linear_25_1278)"/>
<path d="M75.2221 43.5683C75.2218 51.0822 75.2085 56.0352 74.4979 59.7699L62.6279 62.3634V44.6745L75.2221 41.7456V43.5683Z" fill="url(#paint4_linear_25_1278)"/>
<path fill-rule="evenodd" clip-rule="evenodd" d="M37.5742 33.5795C37.5742 31.9728 38.8878 31.3549 41.0635 31.3549C44.1833 31.3549 48.1241 32.3024 51.244 33.9915V24.3101C47.8368 22.9506 44.4707 22.415 41.0635 22.415C32.7303 22.415 27.1885 26.782 27.1885 34.0739C27.1885 45.4443 42.7876 43.6316 42.7876 48.5341C42.7876 50.4292 41.1456 51.0472 38.8468 51.0472C35.4396 51.0472 31.0883 49.6465 27.64 47.7514V57.5563C31.4577 59.2042 35.3164 59.9046 38.8468 59.9046C47.3852 59.9046 53.2554 55.6613 53.2554 48.2869C53.2144 36.0101 37.5742 38.1936 37.5742 33.5795Z" fill="white"/>
<defs>
<linearGradient id="paint0_linear_25_1278" x1="5.22217" y1="5.13477" x2="28.2138" y2="21.39" gradientUnits="userSpaceOnUse">
<stop stop-color="#392993"/>
<stop offset="1" stop-color="#4B47B9"/>
</linearGradient>
<linearGradient id="paint1_linear_25_1278" x1="7.85815" y1="21.5706" x2="58.6137" y2="63.4368" gradientUnits="userSpaceOnUse">
<stop stop-color="#594BB9"/>
<stop offset="1" stop-color="#60A8F2"/>
</linearGradient>
<linearGradient id="paint2_linear_25_1278" x1="40.3687" y1="67.5194" x2="75.2222" y2="75.1345" gradientUnits="userSpaceOnUse">
<stop stop-color="#61A2EF"/>
<stop offset="1" stop-color="#58E6FD"/>
</linearGradient>
<linearGradient id="paint3_linear_25_1278" x1="31.2891" y1="10.1138" x2="75.2221" y2="5.13477" gradientUnits="userSpaceOnUse">
<stop stop-color="#534EBE"/>
<stop offset="1" stop-color="#6875E2"/>
</linearGradient>
<linearGradient id="paint4_linear_25_1278" x1="62.6279" y1="44.8209" x2="75.2221" y2="59.9046" gradientUnits="userSpaceOnUse">
<stop stop-color="#71A5F3"/>
<stop offset="1" stop-color="#6CC3FA"/>
</linearGradient>
</defs>
</svg>
