<svg width="81" height="81" viewBox="0 0 81 81" fill="none" xmlns="http://www.w3.org/2000/svg">
<path d="M48.2765 47.5392C43.5274 49.3263 38.2056 49.3296 33.4564 47.5403C31.6671 42.7964 31.6666 37.4757 33.4536 32.731C38.2016 30.9408 43.5287 30.9405 48.2767 32.7307C50.0654 37.474 50.0646 42.7959 48.2765 47.5392ZM75.4021 34.3013H54.9587L69.4135 19.8548C67.145 16.6702 64.3443 13.8727 61.1577 11.6055L46.7018 26.052V5.62183C42.8437 4.97322 38.887 4.97421 35.0288 5.62183V26.052L20.573 11.6055C17.3871 13.8711 14.5856 16.6725 12.3169 19.8548L26.7739 34.3013H6.33075C5.82613 38.2726 5.66217 42.0048 6.33075 45.9678H26.7742L12.3172 60.4143C14.5914 63.6037 17.3815 66.392 20.573 68.6648L35.0288 54.2171V74.6484C38.8874 75.2946 42.843 75.2949 46.7015 74.6484V54.2171L61.1588 68.6648C64.3468 66.3953 67.1425 63.6001 69.4135 60.4143L54.9565 45.9678H75.4021C76.0509 42.1155 76.0509 38.1536 75.4021 34.3013Z" fill="#FF4A00"/>
</svg>
