<svg width="99" height="32" viewBox="0 0 99 32" fill="none" xmlns="http://www.w3.org/2000/svg">
<g clip-path="url(#clip0_25_1142)">
<mask id="mask0_25_1142" style="mask-type:luminance" maskUnits="userSpaceOnUse" x="0" y="0" width="99" height="32">
<path d="M98.3637 0H0.636475V32H98.3637V0Z" fill="white"/>
</mask>
<g mask="url(#mask0_25_1142)">
<path d="M38.1648 27.9145C34.5284 25.572 29.5933 25.1609 21.6343 27.3691C13.1495 29.363 10.3205 30.6411 6.60528 28.0753C5.17797 26.8149 4.66625 24.7854 5.04836 21.8622C5.93463 17.0967 8.32968 12.5108 12.5839 7.42382C14.9585 4.77761 17.1612 2.50667 20.0698 1.59475C22.2989 1.02268 22.0905 2.77456 21.8208 3.02511C21.5362 3.02511 21.058 3.06995 20.6885 3.31109C20.3886 3.54368 19.5654 4.29471 19.5212 5.30497C19.4574 6.8515 21.0579 6.52961 21.7482 5.68048C22.4923 4.72361 23.592 2.89123 22.727 1.18344C22.3644 0.575579 21.738 0.155474 20.9602 0.012426C18.2969 -0.139784 15.8164 1.12982 13.5273 2.53342C8.52098 6.01117 4.51624 10.8301 2.25019 16.1049C0.943696 19.2875 -0.237826 23.8465 1.53323 27.5571C2.90325 30.1317 5.7476 31.4993 9.14106 31.2133C11.5211 30.9633 14.399 30.194 16.3346 29.7296C18.2702 29.2644 28.1784 25.8585 31.434 31.7862C31.434 31.7862 32.5166 29.6847 35.222 29.6399C37.4463 29.4347 40.655 30.2838 42.9918 32C42.2133 30.8292 40.0061 29.1037 38.1648 27.9145Z" fill="#E61D2A"/>
<path d="M22.6445 8.02273C20.7913 6.80689 17.0667 9.13133 14.0834 13.1185C11.3554 16.6949 10.1774 20.8516 11.4593 22.7738C13.3664 25.0356 16.9065 21.7457 18.412 19.9848L18.6063 19.779C19.6301 18.6793 20.4211 17.3561 21.1866 16.0865C21.1866 16.0865 21.8903 14.9242 21.9239 14.8705C22.3587 14.7903 22.8826 14.6651 23.4728 14.4952C23.4644 14.5218 21.2145 18.3036 21.444 20.1807C21.5155 20.7534 21.4609 22.8454 23.5034 23.48C26.2256 23.9363 28.3993 21.8261 30.3169 19.9486C30.3169 19.9486 30.6437 19.636 30.8285 19.4576C30.7817 19.6448 30.7208 19.8946 30.7208 19.8946C29.9238 22.6662 30.9981 23.2477 31.6701 23.4623C33.701 24.0527 36.1272 21.1022 36.135 21.1022C36.0721 22.0316 35.8881 22.8004 36.8678 23.4173C37.7926 23.7484 38.7284 23.2438 39.4398 22.7699C42.002 20.964 44.0663 18.1376 45.7336 15.6944H44.6701C44.6575 15.6944 42.0458 19.4799 40.3498 20.3027C40.3472 20.3027 40.0386 20.4611 39.8607 20.3358C39.6406 20.1479 39.7274 19.7575 39.8634 19.4809C39.872 19.4628 46.4115 8.12058 46.4115 8.12058H43.3238C43.3238 8.12058 42.9865 8.66627 42.959 8.70206C42.9383 8.68423 42.8888 8.59041 42.8545 8.54545C40.9415 5.89924 36.6093 9.96958 33.3478 14.6898C32.0921 16.5048 30.4934 18.5484 28.8357 20.0235C28.8357 20.0235 26.38 22.2747 25.3306 20.6573C24.9471 19.9777 25.0651 18.9842 25.2814 18.3317C26.5031 14.854 28.6083 11.6978 31.0038 9.79331C31.6801 9.26619 32.4151 9.11374 32.7799 9.33729C33.1274 9.54325 33.1835 10.0524 32.9636 10.4012C32.4057 10.3833 31.9587 10.5529 31.5953 10.9284C30.8795 11.6794 30.6307 12.4037 30.8583 13.0833C31.964 14.6567 34.1691 11.5454 34.0624 9.65014C34.0243 8.97057 33.6618 8.32703 33.1207 8.01382C32.3143 7.53129 31.0842 7.65626 30.2881 8.04094C29.2224 8.44308 27.5354 9.84657 26.5506 10.9374C25.311 12.3055 23.1849 13.8252 22.52 13.655C22.7378 13.0736 24.5337 9.39934 22.6445 8.02273ZM37.5309 13.4583C38.1316 12.627 39.8798 10.4008 40.306 10.0254C41.7394 8.76436 42.3123 9.31921 42.3619 9.71232C41.0242 12.1082 39.4453 14.853 37.9608 17.3206C37.9638 17.3118 37.4962 18.0268 37.4962 18.0268C36.8406 19.0279 36.1804 19.8862 35.1036 20.4852C34.95 20.5301 34.6969 20.5481 34.5285 20.4225C34.3257 20.2884 34.2457 20.0648 34.2685 19.8322C34.333 19.0636 35.1157 16.7128 37.5309 13.4583ZM20.7334 14.8976C20.7334 14.8976 20.7065 14.9783 20.6932 15.0047C20.6898 15.0047 19.347 17.1948 19.347 17.1948C18.5366 18.2768 17.5248 19.636 16.26 20.2884C15.885 20.4136 15.3668 20.4942 15.1027 20.1636C14.5429 19.493 14.8314 18.5632 15.0658 17.8123L15.1488 17.5441C15.8209 15.7205 16.8874 14.1109 17.9253 12.6179C17.9383 12.6091 17.9674 12.6002 17.9779 12.6002C17.9803 12.6091 17.9845 12.6091 17.9863 12.627C18.6377 13.8784 19.859 14.4593 20.7724 14.7279C20.7779 14.7279 20.7837 14.7368 20.7837 14.7548C20.7839 14.7814 20.769 14.8175 20.7334 14.8976ZM22.0056 12.3142C21.9997 12.332 21.4075 13.6908 21.4075 13.6908C21.3219 13.7623 21.1865 13.7266 21.0314 13.6908L20.7655 13.6458C19.9308 13.3867 19.3012 12.8324 19.1071 12.1709C18.8393 10.8835 19.9391 9.8732 20.4237 9.50684C20.8887 9.18471 21.6115 9.01491 22.0312 9.34584C22.2901 9.64989 22.3882 10.0431 22.3882 10.4725C22.3883 11.0535 22.209 11.7061 22.0056 12.3142Z" fill="#E61D2A"/>
<path d="M61.0403 16.4621C60.7426 15.8186 60.0358 15.4072 59.2826 15.4518C56.8366 15.6755 54.4441 17.687 53.188 20.5744C52.5288 22.0587 52.169 23.2833 51.9331 25.2323C52.6937 24.3564 54.2451 22.9171 56.0057 22.1303C56.0057 22.1303 56.2452 20.2618 57.4668 18.5989C57.9291 17.9103 58.8542 16.8018 59.8929 17.0967C60.8004 17.4009 60.4815 19.9131 59.2753 22.3443C58.3828 24.1326 57.017 25.9211 55.6352 27.1545C54.4135 28.1917 52.6059 29.4432 51.0244 28.4778C50.0283 27.888 49.5203 26.6539 49.6276 25.0626C50.1036 20.5479 52.1586 16.7036 55.0996 12.323C58.1321 8.25517 61.4749 4.08014 65.978 1.85367C66.8965 1.38885 67.7471 1.2816 68.4824 1.56769C68.4824 1.56769 64.2552 3.89214 62.2402 8.1925C61.7276 9.28338 61.0147 10.7581 61.7326 12.0635C62.1078 12.7428 62.7739 12.7966 63.3102 12.7608C65.7801 12.1885 67.3759 9.88196 68.6797 7.77227C69.4356 6.17199 70.1075 4.58062 70.1075 2.81042C70.1075 2.59591 70.0964 2.30993 70.0781 2.09518C71.2582 1.4696 73.6779 2.57795 73.6779 2.57795C75.5688 3.20401 79.5951 6.28853 80.9532 6.87831C81.6157 6.10957 82.7044 4.94747 83.3174 4.36623L82.43 3.8208C81.0093 2.95359 79.5076 2.13097 78.0295 1.31751C74.6727 -0.514996 71.9403 0.128537 70.5497 0.629267C70.0032 0.825821 69.5036 0.995744 69.5036 0.995744C68.4716 -0.130685 66.7791 -0.023673 65.532 0.280503C61.0471 1.56782 56.883 4.70572 52.4187 10.1505C49.1365 14.4151 47.1006 18.0985 46.0155 21.737C45.1791 24.1864 44.9249 27.7894 46.9664 29.9262C48.7022 31.7405 51.0037 31.3475 52.6291 30.6951C56.1506 28.9607 59.3156 25.2235 60.8926 20.9232C61.2732 19.6449 61.6956 17.8391 61.0403 16.4621ZM69.1378 2.98938C68.6716 8.33567 64.5159 11.474 63.4877 11.7239C62.8645 11.8489 61.8013 11.5719 62.7504 9.32821C64.1483 6.30612 66.5348 3.74054 69.0954 2.42623C69.1577 2.64978 69.1561 2.79246 69.1378 2.98938Z" fill="#E61D2A"/>
<path d="M93.7894 3.66861C91.5541 4.93833 89.2368 5.76058 86.4317 5.47461C85.6543 6.35098 84.8974 7.25386 84.1997 8.18349C88.1368 9.18482 92.3107 6.95872 94.6384 4.84012C97.1009 2.70331 98.3637 0.0125122 98.3637 0.0125122C98.3637 0.0125122 96.5179 2.1222 93.7894 3.66861Z" fill="#E61D2A"/>
<path d="M49.889 10.8082L51.5436 8.12073H48.6113L46.9573 10.8082H49.889Z" fill="#E61D2A"/>
<path d="M86.4199 28.1634C86.1046 28.3779 85.6616 28.213 85.8273 27.7214C86.2398 26.4697 87.8799 23.9191 87.8799 23.9191L92.4482 15.8167H89.319C89.1703 16.0611 88.8522 16.6221 88.8522 16.6221C88.7074 16.381 88.2745 15.8447 88.0963 15.7289C87.3318 15.2458 86.2101 15.4742 85.4364 15.9121C82.0722 17.8793 79.6177 21.7658 77.682 24.7967C77.682 24.7967 75.6442 28.1658 74.513 28.4163C73.6299 28.4879 73.7211 27.2983 73.7593 27.0212C74.1007 25.0182 74.8937 23.1142 75.6926 21.3887C77.3174 20.2622 79.1718 18.7872 80.857 17.169C84.5142 13.6731 87.5974 9.71258 88.048 8.82753C88.048 8.82753 87.5602 8.92599 86.9843 8.94371C84.1707 12.8684 78.4131 18.5725 76.6676 19.4217C77.4408 17.5618 82.4368 8.68436 86.6883 4.43787L87.3573 3.79397C88.3918 2.78371 89.4637 1.74671 90.299 1.57678C90.3872 1.56787 90.5008 1.57678 90.5989 1.78274C90.6362 2.56933 90.3434 3.15056 90.0074 3.81205L89.5366 4.77772C89.5366 4.77772 90.2035 4.6525 90.6414 4.50909C91.1496 3.55295 91.7124 2.47978 91.505 1.20163C91.4357 0.790323 91.138 0.477474 90.7489 0.405889C89.4807 0.164502 88.0985 1.10293 86.9863 1.86312L86.9414 1.88975C81.2242 6.36884 76.3965 12.8237 72.1758 21.6388C71.8699 21.8709 70.688 22.1484 70.487 22.0141C70.9038 21.1561 71.4286 20.0025 71.6913 18.7509C71.7367 18.3932 71.779 18.0268 71.779 17.6693C71.779 16.8998 71.5943 16.1759 70.9049 15.6754C70.0967 15.273 69.0978 15.4609 68.4244 15.7647C65.4073 17.0163 63.1524 20.1099 61.5252 22.6575C60.6501 24.2761 59.7775 26.0097 59.5358 27.9948C59.3657 29.5501 59.7121 30.5514 60.5964 31.0523C61.5059 31.5169 62.6505 31.034 63.1002 30.8017C66.1567 29.1925 68.2923 25.9653 69.9758 23.0148C70.0427 23.006 70.9619 22.9794 71.6571 22.8003C71.6664 22.8003 71.6703 22.8003 71.6857 22.8097C71.6458 22.9433 71.2866 24.0164 71.2866 24.0164C70.2196 27.1453 69.7262 29.2733 70.734 30.5336C72.1742 32.3129 74.5583 30.4713 76.4979 28.0391C76.0816 30.9536 77.592 31.4097 78.7434 31.1864C80.066 30.829 81.5399 29.4161 82.2238 28.6922C82.0042 29.5413 82.0639 31.0613 83.2671 31.2132C84.0918 31.3656 84.7089 30.9171 85.4231 30.5325C87.9846 29.1377 91.0509 24.4899 91.847 23.1462H90.8032C89.6715 24.8565 88.2314 27.099 86.4199 28.1634ZM63.4273 27.8521C63.2649 27.6107 63.211 27.3467 63.2056 27.0614C63.1745 25.3084 65.0605 22.169 66.3918 20.4588C66.3946 20.4588 66.3946 20.4588 66.3946 20.4588C66.9525 21.6804 68.2159 22.4656 68.9785 22.7965C68.0313 24.9066 64.7827 29.4255 63.4273 27.8521ZM69.5131 21.8532C69.4228 21.9161 67.8297 21.3795 67.5219 19.9044C67.2607 18.6345 68.1352 17.6422 68.9813 17.1419C69.3445 16.8557 69.8915 16.7576 70.2928 16.9C70.6653 17.1507 70.7662 17.5981 70.7662 18.0801C70.7662 18.3757 70.727 18.6794 70.6924 18.9565C70.6924 18.9565 70.6858 19.0103 70.6847 19.0193C70.4192 20.0113 70.0131 20.9859 69.5131 21.8532ZM82.2904 27.2889L81.9882 27.5571C81.5584 27.9413 81.1162 28.3526 80.5824 28.1469C80.4349 28.0932 80.3312 27.8968 80.3063 27.7444C80.282 26.6447 80.7772 25.6257 81.2574 24.6336L81.3806 24.3741C82.7619 22.0676 84.3676 19.3498 86.7258 17.4637C87.1231 17.177 87.5544 16.9361 88.0095 17.124C88.1142 17.2221 88.2361 17.3921 88.2361 17.5618C88.2361 17.6157 88.1884 17.7586 88.1608 17.803C87.5022 18.8674 86.8749 19.9848 86.265 21.0575C85.073 23.1765 83.8363 25.3665 82.2904 27.2889Z" fill="#E61D2A"/>
</g>
</g>
<defs>
<clipPath id="clip0_25_1142">
<rect width="98" height="32" fill="white" transform="translate(0.5)"/>
</clipPath>
</defs>
</svg>
