<svg width="216" height="32" viewBox="0 0 216 32" fill="none" xmlns="http://www.w3.org/2000/svg">
<path d="M142.747 11.2755L147.067 16.0371L151.227 11.2755H160.109L151.428 21.0364L160.228 30.8771H150.988L146.708 26.0778L142.467 30.8771H133.545L142.267 21.077L133.545 11.2755H142.747Z" fill="#FF5900"/>
<path d="M133.545 11.2755V17.8984H123.666V23.9758H133.545V30.8771H116.406V0H133.545V6.88254H123.666V11.2755H133.545Z" fill="#FF5900"/>
<path d="M109.177 0V12.6364H109.097C107.496 10.7968 105.497 10.157 103.177 10.157C98.424 10.157 94.8435 13.3893 93.5871 17.6605C92.1522 12.9541 88.4557 10.0685 82.9746 10.0685C78.5236 10.0685 75.0084 12.0662 73.1746 15.3218V11.2755H63.9736V6.88254H74.0145V0H55.7723V30.8771H63.9736V17.8984H72.1488C71.905 18.8516 71.7745 19.8728 71.7745 20.9509C71.7745 27.3909 76.6956 31.9116 82.9746 31.9116C88.2554 31.9116 91.7359 29.4322 93.5754 24.9129H86.5465C85.5961 26.2723 84.8751 26.6742 82.9746 26.6742C80.7709 26.6742 78.8703 24.7519 78.8703 22.4728H93.1823C93.8032 27.5882 97.7886 32 103.257 32C105.616 32 107.776 30.8394 109.096 28.8808H109.176V30.88H116.405V0H109.177ZM79.0995 17.9898C79.5551 16.0283 81.077 14.7473 82.976 14.7473C85.0665 14.7473 86.5102 15.9891 86.8902 17.9898C87.0499 17.9898 79.0995 17.9898 79.0995 17.9898ZM104.789 26.1766C102.123 26.1766 100.467 23.6928 100.467 21.1002C100.467 18.3292 101.907 15.6641 104.789 15.6641C107.776 15.6641 108.965 18.3292 108.965 21.1002C108.965 23.7277 107.705 26.1766 104.789 26.1766Z" fill="#2A007C"/>
</svg>
