<svg width="82" height="32" viewBox="0 0 82 32" fill="none" xmlns="http://www.w3.org/2000/svg">
<g clip-path="url(#clip0_25_1095)">
<mask id="mask0_25_1095" style="mask-type:luminance" maskUnits="userSpaceOnUse" x="1" y="0" width="81" height="32">
<path d="M81.1347 0H1.36377V32H81.1347V0Z" fill="white"/>
</mask>
<g mask="url(#mask0_25_1095)">
<path d="M1.36377 29.7719H16.8739V31.9921H1.36377V29.7719Z" fill="#1F70C1"/>
<path d="M1.36377 25.5131H16.8739V27.7412H1.36377V25.5131Z" fill="#1F70C1"/>
<path d="M5.78857 21.2622H12.4414V23.4904H5.78857V21.2622Z" fill="#1F70C1"/>
<path d="M5.78857 17.0114H12.4414V19.2395H5.78857V17.0114Z" fill="#1F70C1"/>
<path d="M5.78857 12.7605H12.4414V14.9886H5.78857V12.7605Z" fill="#1F70C1"/>
<path d="M5.78857 8.50177H12.4414V10.7299H5.78857V8.50177Z" fill="#1F70C1"/>
<path d="M16.8739 4.25079H1.36377V6.47895H16.8739V4.25079Z" fill="#1F70C1"/>
<path d="M16.8739 0H1.36377V2.22816H16.8739V0Z" fill="#1F70C1"/>
<path d="M19.0862 27.7412H42.94C43.3429 27.0538 43.6432 26.3032 43.825 25.513H19.0862V27.7412Z" fill="#1F70C1"/>
<path d="M41.0832 17.0114H23.5188V19.2395H42.9401C42.4343 18.3862 41.8101 17.6356 41.0832 17.0114Z" fill="#1F70C1"/>
<path d="M23.5188 12.7605V14.9886H41.0832C41.826 14.3644 42.4501 13.6138 42.9401 12.7605H23.5188Z" fill="#1F70C1"/>
<path d="M42.9401 4.25079H19.0862V6.47895H43.825C43.6196 5.68882 43.3193 4.93826 42.9401 4.25079Z" fill="#1F70C1"/>
<path d="M35.6077 0H19.0862V2.22816H41.3044C39.819 0.853309 37.8043 0 35.6077 0Z" fill="#1F70C1"/>
<path d="M30.1637 8.50177H23.5188V10.7299H30.1637V8.50177Z" fill="#1F70C1"/>
<path d="M36.8167 10.7299H43.7697C43.9672 10.0188 44.07 9.26821 44.07 8.50177H36.8167V10.7299Z" fill="#1F70C1"/>
<path d="M23.5188 21.2622H30.1637V23.4904H23.5188V21.2622Z" fill="#1F70C1"/>
<path d="M36.8167 21.2622V23.4904H44.07C44.07 22.7239 43.9672 21.9734 43.7697 21.2622H36.8167Z" fill="#1F70C1"/>
<path d="M19.0862 31.9763L35.6077 32C37.82 32 39.819 31.1467 41.3123 29.7719H19.0862V31.9763Z" fill="#1F70C1"/>
<path d="M45.6819 29.7719H56.7593V31.9921H45.6819V29.7719Z" fill="#1F70C1"/>
<path d="M45.6819 25.5131H56.7593V27.7412H45.6819V25.5131Z" fill="#1F70C1"/>
<path d="M50.1064 21.2622H56.7593V23.4904H50.1064V21.2622Z" fill="#1F70C1"/>
<path d="M50.1064 17.0114H56.7593V19.2395H50.1064V17.0114Z" fill="#1F70C1"/>
<path d="M59.8409 4.25079H45.6819V6.47895H60.6073L59.8409 4.25079Z" fill="#1F70C1"/>
<path d="M58.3712 0H45.6819V2.22816H59.1376L58.3712 0Z" fill="#1F70C1"/>
<path d="M70.0493 29.7719H81.1348V31.9921H70.0493V29.7719Z" fill="#1F70C1"/>
<path d="M70.0493 25.5131H81.1348V27.7412H70.0493V25.5131Z" fill="#1F70C1"/>
<path d="M70.0493 21.2622H76.7021V23.4904H70.0493V21.2622Z" fill="#1F70C1"/>
<path d="M70.0493 17.0114H76.7021V19.2395H70.0493V17.0114Z" fill="#1F70C1"/>
<path d="M70.0492 14.9886H76.702V12.7605H70.0492H64.0285L63.4042 14.562L62.78 12.7605H56.7593H50.1064V14.9886H56.7593V12.9422L57.4625 14.9886H69.346L70.0492 12.9422V14.9886Z" fill="#1F70C1"/>
<path d="M76.702 8.50177H65.4981L64.7317 10.7299H76.702V8.50177Z" fill="#1F70C1"/>
<path d="M68.4454 0L67.679 2.22816H81.1348V0H68.4454Z" fill="#1F70C1"/>
<path d="M63.4044 31.9763L64.1707 29.7719H62.6379L63.4044 31.9763Z" fill="#1F70C1"/>
<path d="M61.9348 27.7412H64.8741L65.6642 25.5131H61.1526L61.9348 27.7412Z" fill="#1F70C1"/>
<path d="M60.4414 23.4904H66.3674L67.1496 21.2622H59.6592L60.4414 23.4904Z" fill="#1F70C1"/>
<path d="M58.9559 19.2395H67.8606L68.6191 17.0114H58.1895L58.9559 19.2395Z" fill="#1F70C1"/>
<path d="M50.1064 10.7299H62.0768L61.3104 8.50177H50.1064V10.7299Z" fill="#1F70C1"/>
<path d="M66.2092 6.47895H81.1347V4.25079H66.9678L66.2092 6.47895Z" fill="#1F70C1"/>
</g>
</g>
<defs>
<clipPath id="clip0_25_1095">
<rect width="81" height="32" fill="white" transform="translate(0.5)"/>
</clipPath>
</defs>
</svg>
