<svg width="65" height="32" viewBox="0 0 65 32" fill="none" xmlns="http://www.w3.org/2000/svg">
<path opacity="0.4" fill-rule="evenodd" clip-rule="evenodd" d="M0.87931 16C1.36494 16 1.75862 16.3404 1.75862 16.7604C1.75862 19.3583 4.58957 21.424 8.5 21.424C12.4104 21.424 15.2414 19.3583 15.2414 16.7604C15.2414 16.3404 15.6351 16 16.1207 16C16.6063 16 17 16.3404 17 16.7604V20.5115C17 24.1911 13.0749 27 8.5 27C3.9251 27 0 24.1911 0 20.5115V16.7604C0 16.3404 0.393681 16 0.87931 16ZM1.75997 20.6102C1.83095 23.2156 4.70482 25.4793 8.5 25.4793C12.2952 25.4793 15.169 23.2156 15.24 20.6102C13.654 22.0848 11.1671 22.9447 8.5 22.9447C5.83286 22.9447 3.34604 22.0848 1.75997 20.6102Z" fill="black"/>
<path fill-rule="evenodd" clip-rule="evenodd" d="M8.5 6.56C6.59465 6.56 4.90274 7.15124 3.68513 8.09403C2.47865 9.02704 1.75862 10.2882 1.75862 11.656C1.75862 12.4563 2.00553 13.1895 2.43858 13.8181L2.43963 13.8196C3.50179 15.3694 5.76017 16.44 8.5 16.44C11.2398 16.44 13.4982 15.3694 14.5604 13.8196L14.5614 13.8181C14.9945 13.1895 15.2414 12.4563 15.2414 11.656C15.2414 10.2898 14.5233 9.02842 13.315 8.08377C12.0963 7.15045 10.404 6.56 8.5 6.56ZM2.52907 6.91846C4.07833 5.71903 6.18487 5 8.5 5C10.8151 5 12.9202 5.71897 14.4681 6.9059L14.4742 6.91052C16.0077 8.10802 17 9.77851 17 11.656C17 12.7482 16.6609 13.7619 16.0626 14.6308C14.6156 16.7413 11.7156 18 8.5 18C5.28441 18 2.38453 16.7414 0.937529 14.6309C0.339125 13.762 0 12.7483 0 11.656C0 9.77914 0.992335 8.10703 2.52907 6.91846Z" fill="black"/>
<path fill-rule="evenodd" clip-rule="evenodd" d="M8.5 6.54286C4.65697 6.54286 1.75862 8.89769 1.75862 11.5829V16.7257C1.75862 19.3614 4.58957 21.4571 8.5 21.4571C12.4104 21.4571 15.2414 19.3614 15.2414 16.7257V11.5829C15.2414 10.2317 14.5233 8.98416 13.315 8.04989C12.0963 7.12682 10.404 6.54286 8.5 6.54286ZM0 11.5829C0 7.84974 3.9251 5 8.5 5C10.8151 5 12.9202 5.71107 14.4681 6.88496L14.4742 6.88952C16.0077 8.07386 17 9.726 17 11.5829V16.7257C17 20.5083 13.0075 23 8.5 23C3.9925 23 0 20.5083 0 16.7257V11.5829Z" fill="black"/>
<path d="M25 23.4752V10.2136H29.824C30.7141 10.2136 31.4973 10.3797 32.1737 10.712C32.862 11.0324 33.396 11.5071 33.7758 12.1361C34.1555 12.7532 34.3454 13.4949 34.3454 14.3612C34.3454 15.2156 34.1496 15.9514 33.758 16.5685C33.3782 17.1856 32.8501 17.6603 32.1737 17.9925C31.4973 18.3248 30.7141 18.491 29.824 18.491H27.1005V23.4752H25ZM27.1005 16.6219H29.8774C30.3521 16.6219 30.7675 16.527 31.1235 16.3371C31.4795 16.1472 31.7584 15.8861 31.9601 15.5538C32.1618 15.2097 32.2627 14.8062 32.2627 14.3434C32.2627 13.8806 32.1618 13.483 31.9601 13.1507C31.7584 12.8066 31.4795 12.5455 31.1235 12.3675C30.7675 12.1776 30.3521 12.0827 29.8774 12.0827H27.1005V16.6219Z" fill="black"/>
<path d="M40.3434 23.6888C39.4178 23.6888 38.5693 23.4693 37.7979 23.0302C37.0384 22.5911 36.4332 21.9918 35.9822 21.2323C35.5313 20.4728 35.3058 19.6124 35.3058 18.6512C35.3058 17.6781 35.5313 16.8177 35.9822 16.0701C36.4332 15.3106 37.0384 14.7172 37.7979 14.29C38.5574 13.8509 39.4059 13.6314 40.3434 13.6314C41.2928 13.6314 42.1413 13.8509 42.889 14.29C43.6485 14.7172 44.2477 15.3106 44.6868 16.0701C45.1378 16.8177 45.3633 17.6781 45.3633 18.6512C45.3633 19.6243 45.1378 20.4906 44.6868 21.2501C44.2359 22.0096 43.6306 22.6089 42.8711 23.048C42.1116 23.4752 41.2691 23.6888 40.3434 23.6888ZM40.3434 21.8197C40.9131 21.8197 41.4174 21.6832 41.8565 21.4103C42.2956 21.1374 42.6397 20.7635 42.889 20.2889C43.15 19.8023 43.2806 19.2564 43.2806 18.6512C43.2806 18.046 43.15 17.506 42.889 17.0313C42.6397 16.5566 42.2956 16.1828 41.8565 15.9099C41.4174 15.6369 40.9131 15.5004 40.3434 15.5004C39.7857 15.5004 39.2813 15.6369 38.8304 15.9099C38.3913 16.1828 38.0412 16.5566 37.7801 17.0313C37.5309 17.506 37.4063 18.046 37.4063 18.6512C37.4063 19.2564 37.5309 19.8023 37.7801 20.2889C38.0412 20.7635 38.3913 21.1374 38.8304 21.4103C39.2813 21.6832 39.7857 21.8197 40.3434 21.8197Z" fill="black"/>
<path d="M47.06 23.4752V10H49.0715V23.4752H47.06Z" fill="black"/>
<path d="M51.1563 23.4752V13.845H53.1678V23.4752H51.1563ZM51.1563 12.5277V10.2136H53.1678V12.5277H51.1563Z" fill="black"/>
<path d="M59.8986 23.6888C58.9729 23.6888 58.1244 23.4693 57.3531 23.0302C56.5936 22.5911 55.9883 21.9918 55.5374 21.2323C55.0864 20.4728 54.8609 19.6124 54.8609 18.6512C54.8609 17.6781 55.0864 16.8177 55.5374 16.0701C55.9883 15.3106 56.5936 14.7172 57.3531 14.29C58.1126 13.8509 58.9611 13.6314 59.8986 13.6314C60.8479 13.6314 61.6964 13.8509 62.4441 14.29C63.2036 14.7172 63.8029 15.3106 64.242 16.0701C64.6929 16.8177 64.9184 17.6781 64.9184 18.6512C64.9184 19.6243 64.6929 20.4906 64.242 21.2501C63.791 22.0096 63.1858 22.6089 62.4263 23.048C61.6668 23.4752 60.8242 23.6888 59.8986 23.6888ZM59.8986 21.8197C60.4682 21.8197 60.9726 21.6832 61.4116 21.4103C61.8507 21.1374 62.1949 20.7635 62.4441 20.2889C62.7052 19.8023 62.8357 19.2564 62.8357 18.6512C62.8357 18.046 62.7052 17.506 62.4441 17.0313C62.1949 16.5566 61.8507 16.1828 61.4116 15.9099C60.9726 15.6369 60.4682 15.5004 59.8986 15.5004C59.3408 15.5004 58.8365 15.6369 58.3855 15.9099C57.9464 16.1828 57.5963 16.5566 57.3353 17.0313C57.086 17.506 56.9614 18.046 56.9614 18.6512C56.9614 19.2564 57.086 19.8023 57.3353 20.2889C57.5963 20.7635 57.9464 21.1374 58.3855 21.4103C58.8365 21.6832 59.3408 21.8197 59.8986 21.8197Z" fill="black"/>
</svg>
