<svg width="216" height="32" viewBox="0 0 216 32" fill="none" xmlns="http://www.w3.org/2000/svg">
<mask id="mask0_23_538" style="mask-type:luminance" maskUnits="userSpaceOnUse" x="63" y="0" width="90" height="32">
<path d="M152.895 0H63.1053V32H152.895V0Z" fill="white"/>
</mask>
<g mask="url(#mask0_23_538)">
<path d="M73.0098 31.9869C70.3344 31.8806 68.1456 31.1486 66.4341 29.7889C66.1075 29.5292 65.3291 28.7504 65.068 28.4219C64.374 27.5492 63.9021 26.6999 63.5874 25.7575C62.619 22.8568 63.1174 19.0504 65.013 14.8729C66.6361 11.2964 69.1406 7.74932 73.5101 2.83657C74.1537 2.11367 76.0704 -0.000488281 76.0828 -0.000488281C76.0874 -0.000488281 75.9829 0.180463 75.8514 0.400815C74.7153 2.30379 73.7432 4.54531 73.2137 6.48586C72.3629 9.59962 72.4655 12.2718 73.5142 14.3438C74.2375 15.7712 75.4776 17.0077 76.8721 17.6912C79.3134 18.8873 82.8875 18.9863 87.2524 17.9807C87.5529 17.9111 102.444 13.9581 120.344 9.19602C138.244 4.43353 152.892 0.540078 152.895 0.543284C152.9 0.547414 111.308 18.3449 89.7165 27.5781C86.2972 29.0399 85.3828 29.4091 83.7753 29.9735C79.6661 31.4165 75.9852 32.1051 73.0098 31.9869Z" fill="black"/>
</g>
</svg>
